<?xml version="1.0" standalone="no"?>
<!DOCTYPE svg PUBLIC "-//W3C//DTD SVG 20010904//EN"
 "http://www.w3.org/TR/2001/REC-SVG-20010904/DTD/svg10.dtd">
<svg version="1.0" xmlns="http://www.w3.org/2000/svg"
 width="155.000000pt" height="104.000000pt" viewBox="0 0 155.000000 104.000000"
 preserveAspectRatio="xMidYMid meet">

<g transform="translate(0.000000,104.000000) scale(0.100000,-0.100000)"
fill="#000000" stroke="none">
<path d="M690 993 c0 -5 14 -17 31 -27 17 -10 55 -42 84 -71 93 -93 94 -161 3
-186 -51 -14 -170 0 -270 31 -34 11 -64 17 -66 15 -5 -5 174 -62 252 -80 212
-50 315 34 192 157 -48 48 -226 175 -226 161z"/>
<path d="M690 880 l0 -80 44 0 c61 0 76 8 76 38 0 18 -15 41 -50 74 -27 26
-54 48 -60 48 -6 0 -10 -33 -10 -80z"/>
<path d="M786 506 c-61 -23 -88 -56 -94 -114 -9 -99 42 -151 157 -160 131 -9
201 35 208 130 5 63 -18 108 -69 134 -45 23 -152 28 -202 10z m134 -74 c28
-23 31 -83 5 -112 -24 -27 -76 -27 -100 0 -27 30 -25 88 4 111 29 24 62 24 91
1z"/>
<path d="M2 375 c2 -74 6 -135 11 -135 4 0 70 0 147 0 l140 0 0 35 0 35 -95 0
c-78 0 -95 3 -95 15 0 12 15 15 75 15 l75 0 0 35 0 35 -75 0 c-59 0 -75 3 -75
15 0 11 19 15 92 17 l91 3 1 33 1 32 -148 0 -148 0 3 -135z"/>
<path d="M340 373 l0 -138 55 3 55 4 0 35 c0 32 20 62 41 63 4 0 21 -22 39
-50 l32 -50 64 0 c35 0 64 2 64 5 0 3 -22 36 -48 73 -27 37 -52 73 -57 81 -6
10 7 28 46 62 l54 48 -70 1 c-71 0 -71 0 -115 -45 -24 -25 -47 -45 -50 -45 -3
0 -4 20 -2 45 l4 45 -56 0 -56 0 0 -137z"/>
<path d="M1104 375 l1 -135 53 0 52 0 0 135 0 135 -53 0 -53 0 0 -135z"/>
<path d="M1270 375 l0 -135 140 0 140 0 0 35 0 35 -85 0 -85 0 0 100 0 100
-55 0 -55 0 0 -135z"/>
<path d="M337 124 c-3 -3 -1 -14 5 -24 9 -14 9 -22 0 -33 -17 -20 -5 -27 50
-27 41 0 48 3 48 20 0 21 -15 27 -25 10 -14 -23 -27 -9 -22 25 5 33 4 35 -22
35 -15 0 -30 -3 -34 -6z"/>
<path d="M457 98 c8 -42 20 -58 47 -58 32 0 42 11 49 53 5 31 3 37 -13 37 -14
0 -18 -7 -16 -31 0 -19 -5 -34 -13 -37 -11 -4 -13 3 -8 32 5 34 5 36 -23 36
-28 0 -29 -2 -23 -32z"/>
<path d="M577 124 c-3 -3 -2 -17 3 -30 6 -14 6 -26 -1 -29 -31 -20 43 -34 99
-19 23 7 31 34 10 34 -9 0 -9 3 0 12 20 20 -6 38 -58 38 -25 0 -49 -3 -53 -6z
m73 -24 c0 -5 -4 -10 -10 -10 -5 0 -10 5 -10 10 0 6 5 10 10 10 6 0 10 -4 10
-10z m0 -30 c0 -5 -4 -10 -10 -10 -5 0 -10 5 -10 10 0 6 5 10 10 10 6 0 10 -4
10 -10z"/>
<path d="M725 85 c0 -43 1 -45 28 -45 24 0 27 3 22 20 -3 11 -3 20 2 20 4 0
14 -9 21 -20 7 -11 21 -20 32 -20 21 0 27 15 10 25 -6 4 -8 16 -4 27 8 27 -10
38 -66 38 l-45 0 0 -45z m70 15 c-3 -5 -10 -10 -16 -10 -5 0 -9 5 -9 10 0 6 7
10 16 10 8 0 12 -4 9 -10z"/>
<path d="M865 85 c0 -41 2 -45 25 -45 23 0 25 4 25 45 0 41 -2 45 -25 45 -23
0 -25 -4 -25 -45z"/>
<path d="M958 119 c-10 -5 -18 -21 -18 -35 0 -30 42 -50 79 -37 28 9 40 33 17
33 -9 0 -16 -4 -16 -10 0 -15 -27 -12 -33 3 -9 24 8 39 36 31 21 -5 27 -2 27
10 0 12 -10 16 -37 16 -21 0 -46 -5 -55 -11z"/>
<path d="M1084 112 c4 -10 -1 -27 -9 -38 -20 -26 -19 -34 5 -34 11 0 20 7 20
15 0 8 7 15 15 15 8 0 15 -7 15 -15 0 -9 9 -15 25 -15 25 0 35 23 15 35 -5 3
-10 17 -10 31 0 21 -4 24 -41 24 -34 0 -39 -3 -35 -18z"/>
<path d="M1195 85 c0 -40 3 -45 20 -43 15 2 19 9 17 28 l-3 25 24 -27 c31 -38
57 -37 57 1 0 16 3 36 6 45 4 12 0 16 -16 16 -18 0 -20 -4 -14 -22 l6 -23 -24
23 c-13 12 -35 22 -49 22 -22 0 -24 -4 -24 -45z"/>
<path d="M1341 108 c0 -13 3 -17 6 -10 11 27 25 11 20 -23 -5 -33 -4 -35 23
-35 27 0 28 2 23 35 -4 23 -2 35 6 35 6 0 11 -5 11 -11 0 -5 5 -7 10 -4 6 3
10 13 10 21 0 10 -14 14 -55 14 -51 0 -55 -2 -54 -22z"/>
<path d="M1463 113 c-4 -9 -2 -18 4 -20 5 -2 19 -10 29 -19 18 -13 17 -14 -8
-8 -21 5 -28 2 -28 -8 0 -17 58 -21 78 -5 18 14 15 26 -13 39 -30 13 -33 28
-5 21 11 -3 20 0 20 6 0 19 -70 13 -77 -6z"/>
</g>
</svg>
